HIERARCHY
ROOT hip
{
	OFFSET 0.000000 0.000000 0.000000 
	CHANNELS 6 Xposition Yposition Zposition Xrotation Zrotation Yrotation
	JOINT abdomen
	{
		OFFSET 0.000000 3.402643 0.000000 
		CHANNELS 3 Xrotation Zrotation Yrotation
		JOINT chest
		{
			OFFSET 0.000000 8.438565 -0.680529 
			CHANNELS 3 Xrotation Zrotation Yrotation
			JOINT neck
			{
				OFFSET 0.000000 10.207942 -0.272212 
				CHANNELS 3 Xrotation Zrotation Yrotation
				JOINT head
				{
					OFFSET 0.000000 3.130431 0.000000 
					CHANNELS 3 Xrotation Zrotation Yrotation
					End Site
					{
						OFFSET 0.000000 3.130435 0.000000 
					}
				}
			}
			JOINT lCollar
			{
				OFFSET 3.470700 6.669187 -0.816635 
				CHANNELS 3 Yrotation Zrotation Xrotation
				JOINT lShldr
				{
					OFFSET 3.198488 0.000000 0.000000 
					CHANNELS 3 Zrotation Yrotation Xrotation
					JOINT lForeArm
					{
						OFFSET 10.139888 0.000000 0.000000 
						CHANNELS 3 Yrotation Zrotation Xrotation
						JOINT lHand
						{
							OFFSET 8.370511 0.000000 0.000000 
							CHANNELS 3 Zrotation Yrotation Xrotation
							End Site
							{
								OFFSET 4.083176 0.000000 0.000000 
							}
						}
					}
				}
			}
			JOINT rCollar
			{
				OFFSET -3.470700 6.669187 -0.816635 
				CHANNELS 3 Yrotation Zrotation Xrotation
				JOINT rShldr
				{
					OFFSET -3.198488 0.000000 0.000000 
					CHANNELS 3 Zrotation Yrotation Xrotation
					JOINT rForeArm
					{
						OFFSET -10.139888 0.000000 0.000000 
						CHANNELS 3 Yrotation Zrotation Xrotation
						JOINT rHand
						{
							OFFSET -8.370511 0.000000 0.000000 
							CHANNELS 3 Zrotation Yrotation Xrotation
							End Site
							{
								OFFSET -4.083176 0.000000 0.000000 
							}
						}
					}
				}
			}
		}
	}
	JOINT lThigh
	{
		OFFSET 5.308129 -1.633274 1.361059 
		CHANNELS 3 Xrotation Zrotation Yrotation
		JOINT lShin
		{
			OFFSET -2.041588 -20.007561 0.000000 
			CHANNELS 3 Xrotation Zrotation Yrotation
			JOINT lFoot
			{
				OFFSET 0.000000 -19.190928 -1.224953 
				CHANNELS 3 Xrotation Yrotation Zrotation
				End Site
				{
					OFFSET 0.000000 -2.449906 4.627600 
				}
			}
		}
	}
	JOINT rThigh
	{
		OFFSET -5.308129 -1.633274 1.361059 
		CHANNELS 3 Xrotation Zrotation Yrotation
		JOINT rShin
		{
			OFFSET 2.041588 -20.007561 0.000000 
			CHANNELS 3 Xrotation Zrotation Yrotation
			JOINT rFoot
			{
				OFFSET 0.000000 -19.190928 -1.224953 
				CHANNELS 3 Xrotation Yrotation Zrotation
				End Site
				{
					OFFSET 0.000000 -2.449906 4.627600 
				}
			}
		}
	}
}
MOTION
Frames: 17
Frame Time: 0.033333
0.400843 49.134937 3.286129 1.178632 0.283122 1.367219 0.000000 0.000000 0.000000 -2.083293 0.117143 -1.572263 5.670942 0.165991 -0.996090 6.870262 -1.288981 0.644588 -2.345093 7.798434 -1.290174 -13.096276 4.000197 -18.231699 0.129927 -9.883809 28.222885 11.566289 -3.653419 -4.106605 -0.218297 -8.034259 -1.281635 11.786139 -5.154663 -25.677074 0.021857 1.849536 21.015518 -7.083805 6.927786 -3.990846 0.477043 9.455624 9.124923 10.619692 -1.933349 1.089112 -10.741199 0.187328 -1.825100 -0.635096 -11.394251 -10.886143 13.107374 3.881389 -4.415571 -10.850913 -0.144018 1.207646 
0.540441 49.008854 3.307661 1.124989 0.341596 1.962972 0.000000 0.000000 0.000000 -1.618358 0.234270 -1.718736 5.727179 0.292922 -1.025377 7.578822 -1.884549 0.869313 -2.855420 7.141710 -0.835933 -14.879297 2.809086 -18.391022 0.783900 -9.688710 28.319992 12.556797 -4.279910 -4.230717 -0.216256 -7.556278 -0.827312 13.085158 -4.441507 -25.009613 -0.292273 2.109206 21.420294 -8.213100 6.931079 -4.098881 -1.445345 10.051130 8.998426 14.648937 -2.226785 -1.983740 -11.508818 0.234542 -2.380606 -0.947814 -11.803742 -11.068141 14.266956 3.962522 -4.361231 -11.504912 -0.205696 1.797724 
0.718349 48.898857 3.353051 0.999323 0.438863 2.968887 0.000000 0.000000 0.000000 -1.045339 0.283020 -2.060570 5.753605 0.380773 -1.220676 8.720034 -2.177372 1.045652 -3.589665 6.522335 -0.294933 -18.224789 4.389848 -17.259768 -5.949481 -9.486082 27.582855 13.008940 -3.227294 -4.154630 -0.409036 -6.921700 -0.313746 15.415585 -4.806776 -24.032909 2.407832 2.358028 21.548237 -9.141323 6.241763 -4.134830 -6.178758 11.281422 8.639799 23.721111 -2.514619 -7.198522 -10.887566 0.226364 -2.510880 -1.162823 -12.238690 -11.292895 15.658147 3.960449 -4.910350 -12.317099 -0.275624 2.223139 
0.981322 48.787334 3.457266 0.817720 0.496710 4.199399 0.000000 0.000000 0.000000 -0.484909 0.380516 -2.431652 5.836794 0.488113 -1.503935 10.272386 -2.138296 1.074928 -4.333278 5.996500 0.253840 -22.880920 8.058846 -15.813907 -18.582569 -9.019634 26.743801 12.425166 -1.147029 -3.930691 -0.554911 -5.919993 0.206996 18.838934 -8.152557 -22.510187 11.560460 2.649958 21.095022 -8.856723 4.494802 -4.006669 -11.835860 12.607291 8.184408 33.782055 -2.775989 -13.394922 -7.533920 0.026746 -0.726922 -0.538122 -12.523458 -11.653903 15.814195 3.930919 -6.217485 -12.515036 -0.400679 3.402698 
1.325704 48.644165 3.638013 0.533719 0.495970 5.234601 0.000000 0.000000 0.000000 0.102790 0.517014 -2.675848 5.906755 0.644190 -1.865336 12.150570 -2.255557 0.937927 -4.852413 5.479673 0.800838 -27.662428 10.159235 -15.611690 -27.876553 -8.389741 26.828365 11.114516 -0.564511 -3.822336 -0.563139 -4.831812 0.735538 22.605253 -11.806434 -21.302855 21.461210 2.744336 21.019308 -8.102478 2.309655 -3.835786 -16.121496 13.797153 7.573233 40.939346 -2.598345 -18.426836 -4.747968 -0.038428 0.779426 0.380764 -12.900177 -12.128116 15.833156 3.979278 -7.340241 -12.678622 -0.558214 4.784360 
1.730520 48.541782 3.919019 0.195535 0.301292 5.595831 0.000000 0.000000 0.000000 0.668471 0.760930 -2.607581 5.826463 0.741827 -1.787212 14.374309 -2.021262 0.850114 -4.975770 4.838109 1.317883 -32.478512 11.603014 -15.581525 -35.456833 -7.746888 27.193069 9.048453 -0.402475 -3.752116 -0.189118 -3.442401 1.242678 26.070267 -13.973311 -20.629866 28.061134 2.779632 21.868748 -7.824585 1.173309 -3.747774 -18.353361 15.296495 7.129878 43.994457 -2.094995 -19.816181 -4.433139 -0.050266 0.879692 1.179211 -13.127586 -12.413279 15.834786 3.970113 -7.321910 -12.910052 -0.622993 5.386631 
2.231356 48.493053 4.290275 -0.096413 0.116669 5.390654 0.000000 0.000000 0.000000 1.154968 0.897698 -2.324393 5.744417 0.751754 -1.318374 16.665253 -1.542779 0.898638 -4.740732 4.191860 1.766265 -37.385120 12.646581 -15.440319 -41.705067 -7.247171 27.094353 6.919565 -0.176102 -3.661002 0.437635 -1.941197 1.670906 29.621864 -15.478147 -20.053864 33.305294 2.684163 24.335201 -7.082273 0.889187 -3.711181 -19.362379 16.871933 6.924469 44.105911 -1.370973 -16.980995 -4.330473 -0.061339 1.065479 2.575561 -13.304893 -12.659753 14.514568 3.832652 -6.860865 -12.532522 -0.688648 6.067161 
2.828096 48.415356 4.733851 -0.225461 -0.009728 5.000000 0.000000 0.000000 0.000000 1.453034 0.858803 -2.090048 5.750587 0.742104 -0.859429 18.463987 -1.191197 1.074392 -4.502859 3.291379 2.009092 -41.625500 13.807775 -14.569767 -46.449287 -6.976180 26.271505 5.433151 -0.195969 -3.618682 0.896053 -0.790826 1.914058 33.707539 -16.332844 -18.834152 37.764694 3.066256 24.233625 -7.883545 0.405224 -3.703434 -19.439096 18.364218 6.767443 41.287758 -0.418970 -12.704671 -3.628246 -0.053609 0.590853 3.914809 -13.757361 -13.045983 13.175977 3.685924 -6.174356 -12.225658 -0.743417 6.862062 
3.528593 48.287926 5.236031 -0.264359 -0.136319 4.384776 0.000000 0.000000 0.000000 1.638287 0.712555 -1.757919 5.658466 0.800762 -0.400352 20.082300 -1.142302 1.259905 -4.115215 2.387277 2.135091 -45.417427 14.842896 -13.225246 -49.836021 -6.734458 26.777916 4.307873 -0.357829 -3.581773 1.497331 0.483573 2.050083 37.673557 -17.155664 -17.557777 42.073414 3.195934 23.675583 -7.999448 -0.388436 -3.673141 -18.298721 19.899582 6.709104 35.729580 0.642463 -9.156932 -2.749386 -0.030752 -1.235200 5.278479 -14.279340 -13.434894 11.703605 3.471699 -5.850255 -11.746183 -0.847253 8.051229 
4.382277 48.097549 5.757990 0.085961 -0.506852 3.525512 0.000000 0.000000 0.000000 1.515747 0.741982 -1.347670 5.285324 0.888669 0.136854 21.577560 -1.005573 1.367320 -3.528503 1.977038 2.009145 -49.118633 15.639522 -11.411537 -51.991062 -6.603299 28.001034 3.640781 -0.331819 -3.563270 2.113945 1.974875 1.884345 41.419872 -17.754566 -16.780178 45.733231 3.216159 26.033312 -6.633996 -1.237127 -3.601626 -17.040501 21.424814 6.648128 29.162609 1.809084 -8.222962 -2.298055 0.033967 -2.785806 5.972708 -14.798524 -13.632608 10.535379 3.131783 -5.538464 -11.299979 -0.942730 9.350441 
5.424854 47.829441 6.377657 0.620103 -1.014673 2.480772 0.000000 0.000000 0.000000 1.146619 0.917838 -0.966829 4.933061 1.025330 0.625249 22.335876 -1.093407 1.435658 -3.032974 1.826492 1.668334 -52.019398 16.676197 -8.220421 -53.444637 -6.535317 28.940344 3.490636 0.354029 -3.549447 2.671699 3.147818 1.513984 45.263668 -18.240105 -15.556975 48.637276 3.365262 26.630753 -6.861366 -1.959041 -3.579588 -15.884912 22.786604 6.460248 23.295729 2.829806 -11.565890 -3.096591 0.064010 -3.234401 6.217179 -15.551720 -13.755507 9.927125 2.876767 -4.680060 -11.246621 -1.082601 10.526811 
6.657180 47.504673 7.120495 0.925555 -1.190990 1.513954 0.000000 0.000000 0.000000 0.839762 0.849552 -0.664134 4.742222 0.956903 0.937695 22.651640 -0.956727 1.445437 -2.678401 1.703730 1.376026 -54.269634 17.837578 -4.878361 -54.500721 -6.490954 30.509083 2.471442 0.063815 -3.516133 3.193397 3.759139 1.201162 48.979828 -18.999891 -13.847984 51.153603 3.523361 27.724249 -7.337086 -2.921774 -3.529487 -13.542138 23.646452 6.733186 17.038359 3.533731 -16.909664 -3.510665 0.208304 -6.538537 8.592164 -16.365152 -14.541430 6.066287 2.394887 -3.969024 -9.646469 -1.097704 12.654521 
8.166593 47.090614 7.879891 1.255359 -0.966693 0.839889 0.000000 0.000000 0.000000 0.628614 0.644502 -0.546840 4.357247 0.663962 0.996253 22.970140 -0.361231 1.328099 -2.515258 1.198826 1.170910 -55.800903 18.489422 -2.519964 -55.076229 -6.595711 32.555004 1.466473 -0.624902 -3.493518 3.408997 3.917240 0.995976 52.580429 -19.696474 -12.783849 53.409473 3.588559 28.995815 -7.487475 -3.314408 -3.509877 -10.768317 23.555676 6.967596 11.549747 3.962929 -20.610806 -3.892500 0.405040 -12.236409 11.033614 -17.781569 -15.517928 2.309432 1.536284 -3.063197 -8.231742 -1.198530 16.269440 
10.009704 46.662384 8.617557 1.383723 -0.439443 0.390614 0.000000 0.000000 0.000000 0.631245 0.458971 -0.439439 4.342649 0.624964 0.615304 22.941467 -0.468686 0.947234 -2.563541 0.700122 1.160986 -57.282074 18.484213 -0.359432 -55.423203 -6.829644 33.509769 1.060109 0.103710 -3.484998 3.495354 3.968182 1.006275 55.848560 -20.620155 -12.866006 55.365555 3.491865 28.449507 -7.247797 -3.387018 -3.512005 -8.201525 22.073221 6.275567 8.306618 4.788623 -20.954376 -6.197072 0.859887 -16.306410 11.959293 -20.191919 -16.531075 2.112196 0.474151 -1.326190 -8.762923 -1.585727 20.489403 
12.068892 46.351158 9.338029 1.201305 0.048828 0.156258 0.000000 0.000000 0.000000 0.983052 0.400377 -0.468738 4.707790 0.556640 0.078216 22.634762 -0.234367 0.478512 -2.657910 0.410277 1.473062 -59.109043 17.641325 1.368434 -55.361691 -7.103984 34.165695 1.685237 1.395000 -3.494649 3.427845 4.279170 1.318823 58.154179 -21.314192 -13.322443 56.664776 3.393479 27.516996 -7.238544 -3.983284 -3.473921 -8.924600 20.064493 4.312182 12.095668 5.433035 -19.104332 -10.174410 1.560153 -17.142784 12.926997 -22.537331 -17.805418 2.274954 -0.615693 -0.041494 -8.787876 -1.873331 23.689842 
14.241744 46.242817 10.029827 0.488281 1.064452 0.000181 0.000000 0.000000 0.000000 1.963250 -0.029295 -0.703130 5.232687 0.126942 -0.761717 22.870947 0.214844 -0.039062 -2.914263 -0.676332 2.340876 -60.445461 15.945225 2.352274 -54.470196 -7.397760 37.101212 4.991317 2.459594 -3.526934 3.194423 4.306978 2.228379 60.037041 -21.434721 -14.052504 57.198536 3.249820 27.287226 -7.773268 -4.020937 -3.475753 -11.238067 16.978916 2.285485 20.025475 5.104581 -16.894615 -14.022533 1.859442 -15.171922 14.279415 -25.042473 -19.661747 1.946855 -1.893195 -0.481247 -5.114637 -1.096886 24.125771 
16.437037 46.348900 10.665380 0.049624 3.115000 -0.703678 0.000000 0.000000 0.000000 2.729202 -1.220619 -0.674091 5.820988 -0.693065 -1.670154 23.454275 0.234359 -0.673823 -3.135936 -2.323647 2.966454 -61.411247 14.120905 3.307140 -53.065628 -7.918328 39.732365 9.399861 4.425167 -3.415847 3.091263 2.977615 2.987300 62.350624 -21.629026 -14.104317 56.882874 3.273439 27.766344 -8.885525 -4.058209 -3.460990 -11.422508 12.623297 1.212782 23.656309 4.127306 -14.489830 -15.868891 1.790826 -12.898374 12.193542 -28.287579 -19.789577 5.163387 -4.514634 -4.689101 1.350688 0.265483 21.753429 
